{
	"asset":{
		"generator":"Khronos glTF Blender I/O v4.5.47",
		"version":"2.0"
	},
	"scene":0,
	"scenes":[
		{
			"name":"Scene",
			"nodes":[
				0,
				1,
				2
			]
		}
	],
	"nodes":[
		{
			"name":"ref_simple_man_front",
			"rotation":[
				0.5,
				0.5,
				-0.5,
				0.5
			],
			"scale":[
				0.6587052941322327,
				0.6587052941322327,
				0.6587052941322327
			],
			"translation":[
				-2.4330968856811523,
				0.8548198938369751,
				0.8791325688362122
			]
		},
		{
			"name":"ref_simple_man_side",
			"rotation":[
				0.7071068286895752,
				0,
				0,
				0.7071068286895752
			],
			"scale":[
				0.6587052941322327,
				0.6587052941322327,
				0.6587052941322327
			],
			"translation":[
				0.5451948642730713,
				0.8548198342323303,
				-2.184931516647339
			]
		},
		{
			"mesh":0,
			"name":"simple_man_chest",
			"scale":[
				-0.167059063911438,
				-0.167059063911438,
				-0.167059063911438
			],
			"translation":[
				0.0008813552558422089,
				1.2204610109329224,
				0.024078911170363426
			]
		}
	],
	"meshes":[
		{
			"name":"Cube.018",
			"primitives":[
				{
					"attributes":{
						"POSITION":0,
						"NORMAL":1,
						"TEXCOORD_0":2
					},
					"indices":3
				}
			]
		}
	],
	"accessors":[
		{
			"bufferView":0,
			"componentType":5126,
			"count":1286,
			"max":[
				5.0734381675720215,
				7.220006942749023,
				0.8106579184532166
			],
			"min":[
				-5.0734381675720215,
				-3.473938465118408,
				-0.9435401558876038
			],
			"type":"VEC3"
		},
		{
			"bufferView":1,
			"componentType":5126,
			"count":1286,
			"type":"VEC3"
		},
		{
			"bufferView":2,
			"componentType":5126,
			"count":1286,
			"type":"VEC2"
		},
		{
			"bufferView":3,
			"componentType":5123,
			"count":1980,
			"type":"SCALAR"
		}
	],
	"bufferViews":[
		{
			"buffer":0,
			"byteLength":15432,
			"byteOffset":0,
			"target":34962
		},
		{
			"buffer":0,
			"byteLength":15432,
			"byteOffset":15432,
			"target":34962
		},
		{
			"buffer":0,
			"byteLength":10288,
			"byteOffset":30864,
			"target":34962
		},
		{
			"buffer":0,
			"byteLength":3960,
			"byteOffset":41152,
			"target":34963
		}
	],
	"buffers":[
		{
			"byteLength":45112,
			"uri":"3_simple_man.bin"
		}
	]
}
