{
	"asset":{
		"generator":"Khronos glTF Blender I/O v4.5.47",
		"version":"2.0"
	},
	"scene":0,
	"scenes":[
		{
			"name":"Scene",
			"nodes":[
				0,
				1,
				2
			]
		}
	],
	"nodes":[
		{
			"name":"block_woman_front",
			"rotation":[
				0.7071068286895752,
				0,
				0,
				0.7071068286895752
			],
			"scale":[
				1.227304220199585,
				1.227304220199585,
				1.227304220199585
			],
			"translation":[
				1.235836148262024,
				1.925124168395996,
				-4.8324174880981445
			]
		},
		{
			"name":"block_woman_front.001",
			"rotation":[
				0.5,
				0.5,
				-0.5,
				0.5
			],
			"scale":[
				1.227304220199585,
				1.227304220199585,
				1.227304220199585
			],
			"translation":[
				-4.8324174880981445,
				1.9251240491867065,
				1.494471788406372
			]
		},
		{
			"mesh":0,
			"name":"simple_woman",
			"scale":[
				-0.3679320216178894,
				-0.3679320216178894,
				-0.3679320216178894
			],
			"translation":[
				0.0019411029061302543,
				2.6879518032073975,
				0.0530315600335598
			]
		}
	],
	"meshes":[
		{
			"name":"Cube.019",
			"primitives":[
				{
					"attributes":{
						"POSITION":0,
						"NORMAL":1,
						"TEXCOORD_0":2
					},
					"indices":3
				}
			]
		}
	],
	"accessors":[
		{
			"bufferView":0,
			"componentType":5126,
			"count":1296,
			"max":[
				3.965665817260742,
				7.140655040740967,
				0.7750604152679443
			],
			"min":[
				-3.965665817260742,
				-2.6818642616271973,
				-0.7251715064048767
			],
			"type":"VEC3"
		},
		{
			"bufferView":1,
			"componentType":5126,
			"count":1296,
			"type":"VEC3"
		},
		{
			"bufferView":2,
			"componentType":5126,
			"count":1296,
			"type":"VEC2"
		},
		{
			"bufferView":3,
			"componentType":5123,
			"count":1980,
			"type":"SCALAR"
		}
	],
	"bufferViews":[
		{
			"buffer":0,
			"byteLength":15552,
			"byteOffset":0,
			"target":34962
		},
		{
			"buffer":0,
			"byteLength":15552,
			"byteOffset":15552,
			"target":34962
		},
		{
			"buffer":0,
			"byteLength":10368,
			"byteOffset":31104,
			"target":34962
		},
		{
			"buffer":0,
			"byteLength":3960,
			"byteOffset":41472,
			"target":34963
		}
	],
	"buffers":[
		{
			"byteLength":45432,
			"uri":"4_simple_woman.bin"
		}
	]
}
