{
	"asset":{
		"generator":"Khronos glTF Blender I/O v4.5.47",
		"version":"2.0"
	},
	"extensionsUsed":[
		"KHR_materials_unlit",
		"KHR_lights_punctual"
	],
	"extensionsRequired":[
		"KHR_lights_punctual"
	],
	"extensions":{
		"KHR_lights_punctual":{
			"lights":[
				{
					"color":[
						1,
						1,
						1
					],
					"intensity":815.2711959882339,
					"type":"point",
					"name":"Light"
				}
			]
		}
	},
	"scene":0,
	"scenes":[
		{
			"name":"Scene",
			"nodes":[
				30,
				31,
				32
			]
		}
	],
	"nodes":[
		{
			"name":"spine.006",
			"rotation":[
				-0.16768842935562134,
				0.26767900586128235,
				-0.05501937121152878,
				0.9472071528434753
			],
			"scale":[
				0.9999999403953552,
				0.9999999403953552,
				1
			],
			"translation":[
				3.725290298461914e-09,
				0.03650105744600296,
				5.494803190231323e-08
			]
		},
		{
			"children":[
				0
			],
			"name":"spine.005",
			"rotation":[
				0.20597434043884277,
				-0.0415712408721447,
				-0.011170920915901661,
				0.977610170841217
			],
			"scale":[
				0.9999999403953552,
				0.9999998807907104,
				0.9999998807907104
			],
			"translation":[
				4.0745362639427185e-10,
				0.05794728547334671,
				3.725290298461914e-09
			]
		},
		{
			"children":[
				1
			],
			"name":"spine.004",
			"rotation":[
				0.1353418231010437,
				-0.007221914362162352,
				-0.009764246642589569,
				0.9907245635986328
			],
			"translation":[
				0.0008049551397562027,
				0.17547857761383057,
				-0.006080705672502518
			]
		},
		{
			"name":"hand.L",
			"rotation":[
				-0.09049323201179504,
				-0.235928013920784,
				-0.09124206751585007,
				0.9632361531257629
			],
			"scale":[
				0.9999999403953552,
				1,
				0.9999999403953552
			],
			"translation":[
				-1.2665987014770508e-07,
				0.25146350264549255,
				1.043081283569336e-07
			]
		},
		{
			"children":[
				3
			],
			"name":"forearm.L",
			"rotation":[
				0.2873457074165344,
				0.05887846648693085,
				-0.1702491044998169,
				0.9407342672348022
			],
			"scale":[
				1,
				1.0000001192092896,
				1.0000001192092896
			],
			"translation":[
				1.4901161193847656e-08,
				0.27426454424858093,
				6.353366188704967e-08
			]
		},
		{
			"children":[
				4
			],
			"name":"upper_arm.L",
			"rotation":[
				0.07334000617265701,
				0.3442057967185974,
				-0.47386041283607483,
				0.8072174191474915
			],
			"scale":[
				1,
				1.0000001192092896,
				1.0000001192092896
			],
			"translation":[
				-0.06072930619120598,
				0.334169864654541,
				-0.09524862468242645
			]
		},
		{
			"children":[
				5
			],
			"name":"shoulder.L",
			"rotation":[
				-0.4858497977256775,
				-0.519441545009613,
				-0.45258936285972595,
				0.5378598570823669
			],
			"scale":[
				0.9999999403953552,
				0.9999997615814209,
				1
			],
			"translation":[
				0.027027694508433342,
				0.15492071211338043,
				-0.020886681973934174
			]
		},
		{
			"name":"hand.R",
			"rotation":[
				-0.005340954288840294,
				0.01852230355143547,
				0.11299174278974533,
				0.9934089183807373
			],
			"translation":[
				1.30385160446167e-08,
				0.25146350264549255,
				-3.3527612686157227e-08
			]
		},
		{
			"children":[
				7
			],
			"name":"forearm.R",
			"rotation":[
				0.03435615077614784,
				-0.15716782212257385,
				0.16381771862506866,
				0.9732840061187744
			],
			"scale":[
				1.0000001192092896,
				1.000000238418579,
				1.0000001192092896
			],
			"translation":[
				-5.960464477539063e-08,
				0.2742644250392914,
				3.725290298461914e-08
			]
		},
		{
			"children":[
				8
			],
			"name":"upper_arm.R",
			"rotation":[
				-0.46376222372055054,
				-0.6232799291610718,
				0.30779898166656494,
				0.549278199672699
			],
			"scale":[
				1.0000001192092896,
				1.0000001192092896,
				1
			],
			"translation":[
				0.06072916090488434,
				0.334169864654541,
				-0.09524872153997421
			]
		},
		{
			"children":[
				9
			],
			"name":"shoulder.R",
			"rotation":[
				-0.5212434530258179,
				0.4661702811717987,
				0.4999186396598816,
				0.5109518766403198
			],
			"scale":[
				0.9999998807907104,
				0.9999998211860657,
				1
			],
			"translation":[
				-0.0313732773065567,
				0.15598198771476746,
				-0.02091074176132679
			]
		},
		{
			"name":"breast.L",
			"rotation":[
				0.005389460362493992,
				0.6111429929733276,
				0.79146808385849,
				0.007316641975194216
			],
			"scale":[
				0.9999998807907104,
				0.9999996423721313,
				0.9999998807907104
			],
			"translation":[
				0.1789761483669281,
				-0.10090243816375732,
				-0.07446146756410599
			]
		},
		{
			"name":"breast.R",
			"rotation":[
				0.005389464553445578,
				0.6111431121826172,
				0.7914679646492004,
				0.00731661356985569
			],
			"scale":[
				0.9999998807907104,
				1.0000003576278687,
				1.000000238418579
			],
			"translation":[
				-0.1924719214439392,
				-0.09415239095687866,
				-0.07461442798376083
			]
		},
		{
			"children":[
				2,
				6,
				10,
				11,
				12
			],
			"name":"spine.003",
			"rotation":[
				-0.11607031524181366,
				0.001840375130996108,
				0.028264367952942848,
				0.9928370714187622
			],
			"scale":[
				0.9999999403953552,
				0.9999999403953552,
				0.9999999403953552
			],
			"translation":[
				4.656612873077393e-10,
				0.14675302803516388,
				-1.6298145055770874e-09
			]
		},
		{
			"children":[
				13
			],
			"name":"spine.002",
			"rotation":[
				-0.009824003092944622,
				-0.2676902115345001,
				-0.021771211177110672,
				0.9632089138031006
			],
			"scale":[
				1,
				1.0000001192092896,
				1
			],
			"translation":[
				1.8917489796876907e-10,
				0.214508518576622,
				-3.2590605769655667e-09
			]
		},
		{
			"children":[
				14
			],
			"name":"spine.001",
			"rotation":[
				-0.12230958044528961,
				-0.0010633482597768307,
				0.0015177816385403275,
				0.992490291595459
			],
			"scale":[
				0.9999998807907104,
				0.9999998211860657,
				0.9999998211860657
			],
			"translation":[
				5.773159728050814e-15,
				0.1522194743156433,
				-1.30385160446167e-08
			]
		},
		{
			"name":"pelvis.L",
			"rotation":[
				-0.1524551957845688,
				-0.7933307886123657,
				-0.28550392389297485,
				0.5156270861625671
			],
			"scale":[
				0.9999998807907104,
				1.0000001192092896,
				0.9999999403953552
			],
			"translation":[
				5.329070518200751e-15,
				2.1420419216156006e-08,
				-3.725290298461914e-09
			]
		},
		{
			"name":"pelvis.R",
			"rotation":[
				-0.15245525538921356,
				0.7933306694030762,
				0.28550389409065247,
				0.5156272053718567
			],
			"scale":[
				0.9999999403953552,
				1.0000001192092896,
				0.9999999403953552
			],
			"translation":[
				5.329070518200751e-15,
				2.1420419216156006e-08,
				-3.725290298461914e-09
			]
		},
		{
			"name":"toe.L",
			"rotation":[
				-0.051040418446063995,
				0.965160071849823,
				-0.2561403512954712,
				0.015909509733319283
			],
			"scale":[
				1,
				0.9999996423721313,
				1
			],
			"translation":[
				-1.501757651567459e-08,
				0.14127707481384277,
				-3.14321368932724e-08
			]
		},
		{
			"name":"heel.02.L",
			"rotation":[
				0.646379828453064,
				0.7185626029968262,
				-0.16986879706382751,
				0.19236819446086884
			],
			"scale":[
				1,
				1.000000238418579,
				0.9999998807907104
			],
			"translation":[
				-0.03948317468166351,
				0.0237286314368248,
				0.09013374149799347
			]
		},
		{
			"children":[
				18,
				19
			],
			"name":"foot.L",
			"rotation":[
				-0.6530984044075012,
				0.02212107926607132,
				0.05110916495323181,
				0.755222499370575
			],
			"scale":[
				1,
				0.9999998807907104,
				1
			],
			"translation":[
				1.949956640601158e-08,
				0.2649807035923004,
				1.8044374883174896e-09
			]
		},
		{
			"children":[
				20
			],
			"name":"shin.L",
			"rotation":[
				0.5689506530761719,
				0.0020623637828975916,
				-0.058314207941293716,
				0.820298969745636
			],
			"scale":[
				1,
				0.9999999403953552,
				1
			],
			"translation":[
				-7.450580596923828e-09,
				0.28440409898757935,
				-8.684583008289337e-08
			]
		},
		{
			"children":[
				21
			],
			"name":"thigh.L",
			"rotation":[
				0.7742960453033447,
				-0.034614600241184235,
				0.012437570840120316,
				0.6317537426948547
			],
			"scale":[
				0.9999996423721313,
				0.9999985694885254,
				0.9999998211860657
			],
			"translation":[
				0.1064809262752533,
				0.06514937430620193,
				0.008937572129070759
			]
		},
		{
			"name":"toe.R",
			"rotation":[
				-0.051040466874837875,
				-0.9651600122451782,
				0.2561405897140503,
				0.015909504145383835
			],
			"scale":[
				1,
				1,
				1.0000001192092896
			],
			"translation":[
				-1.3387762010097504e-08,
				0.1412769854068756,
				-9.42964106798172e-09
			]
		},
		{
			"name":"heel.02.R",
			"rotation":[
				0.6463798880577087,
				-0.7185624241828918,
				0.1698690950870514,
				0.19236844778060913
			],
			"scale":[
				1,
				1.0000001192092896,
				0.9999999403953552
			],
			"translation":[
				0.039483170956373215,
				0.023728666827082634,
				0.09013374894857407
			]
		},
		{
			"children":[
				23,
				24
			],
			"name":"foot.R",
			"rotation":[
				-0.5239728093147278,
				0.03662724420428276,
				0.02322234958410263,
				0.8506301641464233
			],
			"scale":[
				0.9999998807907104,
				0.9999999403953552,
				1.0000001192092896
			],
			"translation":[
				4.9622030928730965e-09,
				0.26498064398765564,
				-2.3865140974521637e-09
			]
		},
		{
			"children":[
				25
			],
			"name":"shin.R",
			"rotation":[
				0.020518314093351364,
				-0.008692109026014805,
				0.060447536408901215,
				0.9979225993156433
			],
			"scale":[
				0.9999998807907104,
				1,
				0.9999998807907104
			],
			"translation":[
				-4.249159246683121e-09,
				0.28440406918525696,
				-1.6298145055770874e-09
			]
		},
		{
			"children":[
				26
			],
			"name":"thigh.R",
			"rotation":[
				0.9921483397483826,
				0.035898447036743164,
				0.008009279146790504,
				0.1195359155535698
			],
			"scale":[
				0.9999998807907104,
				0.9999999403953552,
				0.9999991059303284
			],
			"translation":[
				-0.10648094117641449,
				0.0651494488120079,
				0.008937557227909565
			]
		},
		{
			"children":[
				15,
				16,
				17,
				22,
				27
			],
			"name":"spine",
			"rotation":[
				0.1258196234703064,
				1.1826192292119231e-07,
				1.4998867925442028e-08,
				0.9920531511306763
			],
			"scale":[
				1,
				0.9999999403953552,
				0.9999998807907104
			],
			"translation":[
				0,
				0.5874249339103699,
				-0.0551999993622303
			]
		},
		{
			"mesh":0,
			"name":"big_man",
			"skin":0
		},
		{
			"children":[
				29,
				28
			],
			"name":"rig_big_man",
			"scale":[
				2.5121419429779053,
				2.5121419429779053,
				2.5121419429779053
			]
		},
		{
			"extensions":{
				"KHR_lights_punctual":{
					"light":0
				}
			},
			"name":"Light",
			"rotation":[
				-0.28416627645492554,
				0.7269423007965088,
				0.34203392267227173,
				0.5232754945755005
			],
			"translation":[
				1,
				2,
				3
			]
		},
		{
			"mesh":1,
			"name":"Floor",
			"scale":[
				17.568265914916992,
				17.568265914916992,
				17.568265914916992
			],
			"translation":[
				0,
				-0.02281498908996582,
				0
			]
		}
	],
	"materials":[
		{
			"doubleSided":true,
			"extensions":{
				"KHR_materials_unlit":{}
			},
			"name":"big_man",
			"pbrMetallicRoughness":{
				"baseColorTexture":{
					"index":0
				},
				"metallicFactor":0,
				"roughnessFactor":0.9
			}
		},
		{
			"doubleSided":true,
			"name":"Material"
		}
	],
	"meshes":[
		{
			"name":"Cube.021",
			"primitives":[
				{
					"attributes":{
						"POSITION":0,
						"NORMAL":1,
						"TEXCOORD_0":2,
						"JOINTS_0":3,
						"WEIGHTS_0":4
					},
					"indices":5,
					"material":0
				}
			]
		},
		{
			"name":"Plane",
			"primitives":[
				{
					"attributes":{
						"POSITION":7,
						"NORMAL":8,
						"TEXCOORD_0":9
					},
					"indices":10,
					"material":1
				}
			]
		}
	],
	"textures":[
		{
			"sampler":0,
			"source":0
		}
	],
	"images":[
		{
			"mimeType":"image/png",
			"name":"big_man",
			"uri":"big_man.png"
		}
	],
	"skins":[
		{
			"inverseBindMatrices":6,
			"joints":[
				28,
				15,
				14,
				13,
				2,
				1,
				0,
				6,
				5,
				4,
				3,
				10,
				9,
				8,
				7,
				11,
				12,
				16,
				17,
				22,
				21,
				20,
				18,
				19,
				27,
				26,
				25,
				23,
				24
			],
			"name":"rig_big_man"
		}
	],
	"accessors":[
		{
			"bufferView":0,
			"componentType":5126,
			"count":1265,
			"max":[
				1.3674169778823853,
				4.171743392944336,
				0.46286678314208984
			],
			"min":[
				-1.3674169778823853,
				0.008283257484436035,
				-0.599473774433136
			],
			"type":"VEC3"
		},
		{
			"bufferView":1,
			"componentType":5126,
			"count":1265,
			"type":"VEC3"
		},
		{
			"bufferView":2,
			"componentType":5126,
			"count":1265,
			"type":"VEC2"
		},
		{
			"bufferView":3,
			"componentType":5121,
			"count":1265,
			"type":"VEC4"
		},
		{
			"bufferView":4,
			"componentType":5126,
			"count":1265,
			"type":"VEC4"
		},
		{
			"bufferView":5,
			"componentType":5123,
			"count":2850,
			"type":"SCALAR"
		},
		{
			"bufferView":6,
			"componentType":5126,
			"count":29,
			"type":"MAT4"
		},
		{
			"bufferView":7,
			"componentType":5126,
			"count":4,
			"max":[
				1,
				0,
				1
			],
			"min":[
				-1,
				0,
				-1
			],
			"type":"VEC3"
		},
		{
			"bufferView":8,
			"componentType":5126,
			"count":4,
			"type":"VEC3"
		},
		{
			"bufferView":9,
			"componentType":5126,
			"count":4,
			"type":"VEC2"
		},
		{
			"bufferView":10,
			"componentType":5123,
			"count":6,
			"type":"SCALAR"
		}
	],
	"bufferViews":[
		{
			"buffer":0,
			"byteLength":15180,
			"byteOffset":0,
			"target":34962
		},
		{
			"buffer":0,
			"byteLength":15180,
			"byteOffset":15180,
			"target":34962
		},
		{
			"buffer":0,
			"byteLength":10120,
			"byteOffset":30360,
			"target":34962
		},
		{
			"buffer":0,
			"byteLength":5060,
			"byteOffset":40480,
			"target":34962
		},
		{
			"buffer":0,
			"byteLength":20240,
			"byteOffset":45540,
			"target":34962
		},
		{
			"buffer":0,
			"byteLength":5700,
			"byteOffset":65780,
			"target":34963
		},
		{
			"buffer":0,
			"byteLength":1856,
			"byteOffset":71480
		},
		{
			"buffer":0,
			"byteLength":48,
			"byteOffset":73336,
			"target":34962
		},
		{
			"buffer":0,
			"byteLength":48,
			"byteOffset":73384,
			"target":34962
		},
		{
			"buffer":0,
			"byteLength":32,
			"byteOffset":73432,
			"target":34962
		},
		{
			"buffer":0,
			"byteLength":12,
			"byteOffset":73464,
			"target":34963
		}
	],
	"samplers":[
		{
			"magFilter":9728,
			"minFilter":9984
		}
	],
	"buffers":[
		{
			"byteLength":73476,
			"uri":"5_big_man.bin"
		}
	]
}
