{
	"asset":{
		"generator":"Khronos glTF Blender I/O v4.5.47",
		"version":"2.0"
	},
	"extensionsUsed":[
		"KHR_lights_punctual"
	],
	"extensionsRequired":[
		"KHR_lights_punctual"
	],
	"extensions":{
		"KHR_lights_punctual":{
			"lights":[
				{
					"color":[
						1,
						1,
						1
					],
					"intensity":543.5141306588226,
					"type":"point",
					"name":"Light"
				}
			]
		}
	},
	"scene":0,
	"scenes":[
		{
			"name":"Scene",
			"nodes":[
				0,
				1,
				2,
				3,
				4,
				5,
				6,
				7,
				8,
				9,
				10,
				11,
				12,
				13,
				14
			]
		}
	],
	"nodes":[
		{
			"name":"BlockManFront",
			"rotation":[
				0.7071068286895752,
				0,
				0,
				0.7071068286895752
			],
			"translation":[
				1.1474660634994507,
				1.7642725706100464,
				-4.489526271820068
			]
		},
		{
			"name":"BlockManSide",
			"rotation":[
				0.5,
				0.5,
				-0.5,
				0.5
			],
			"translation":[
				-3.5646965503692627,
				1.7394254207611084,
				1.2167446613311768
			]
		},
		{
			"mesh":0,
			"name":"UpperLeg",
			"scale":[
				0.17184989154338837,
				0.3148590326309204,
				0.3148590326309204
			],
			"translation":[
				0.2218340039253235,
				1.5781904458999634,
				0
			]
		},
		{
			"extensions":{
				"KHR_lights_punctual":{
					"light":0
				}
			},
			"name":"Light",
			"rotation":[
				-0.28416627645492554,
				0.7269423007965088,
				0.34203392267227173,
				0.5232754945755005
			],
			"translation":[
				4.076245307922363,
				5.903861999511719,
				-1.0054539442062378
			]
		},
		{
			"mesh":1,
			"name":"LowerLeg",
			"scale":[
				0.17184989154338837,
				0.3148590326309204,
				0.3148590326309204
			],
			"translation":[
				0.24718646705150604,
				0.6084589958190918,
				0
			]
		},
		{
			"mesh":2,
			"name":"Foot",
			"scale":[
				0.13511115312576294,
				0.13511115312576294,
				0.13511115312576294
			],
			"translation":[
				0,
				0.08913832902908325,
				-0.019261673092842102
			]
		},
		{
			"mesh":3,
			"name":"Knee",
			"scale":[
				0.06069519370794296,
				0.0938529372215271,
				0.0938529372215271
			],
			"translation":[
				0.18293580412864685,
				1.1221108436584473,
				0.0220278799533844
			]
		},
		{
			"mesh":4,
			"name":"Cube",
			"rotation":[
				0,
				0,
				-1,
				0
			],
			"scale":[
				-0.27319395542144775,
				-0.27319395542144775,
				-0.27319395542144775
			],
			"translation":[
				-0.0035125017166137695,
				2.2421975135803223,
				0.011398360133171082
			]
		},
		{
			"mesh":5,
			"name":"Cube.001",
			"scale":[
				0.42816612124443054,
				0.42816612124443054,
				0.42816612124443054
			],
			"translation":[
				-0.0014324785443022847,
				2.8952443599700928,
				0.01139833778142929
			]
		},
		{
			"mesh":6,
			"name":"Icosphere",
			"scale":[
				-0.09395408630371094,
				-0.09395408630371094,
				-0.09395408630371094
			],
			"translation":[
				0.4540060758590698,
				3.006047248840332,
				-0.10052523016929626
			]
		},
		{
			"mesh":7,
			"name":"Cube.002",
			"scale":[
				0.15593379735946655,
				0.15593379735946655,
				0.15593379735946655
			],
			"translation":[
				0.5811050534248352,
				2.718311309814453,
				-0.10052521526813507
			]
		},
		{
			"mesh":8,
			"name":"Cube.003",
			"rotation":[
				-0.09056191146373749,
				0,
				0,
				0.9958909153938293
			],
			"scale":[
				0.15593379735946655,
				0.15593379735946655,
				0.15593379735946655
			],
			"translation":[
				0.7646926641464233,
				2.2880430221557617,
				-0.026201024651527405
			]
		},
		{
			"mesh":9,
			"name":"Cube.005",
			"rotation":[
				-0.7215257883071899,
				-0.04118621349334717,
				-0.25783050060272217,
				0.6412704586982727
			],
			"scale":[
				0.15593379735946655,
				0.15593379735946655,
				0.15593378245830536
			],
			"translation":[
				0.6552461981773376,
				1.797161340713501,
				0.10444139689207077
			]
		},
		{
			"mesh":10,
			"name":"Cylinder",
			"scale":[
				0.10011976957321167,
				0.10011976957321167,
				0.10011976957321167
			],
			"translation":[
				0.000803723931312561,
				3.21775484085083,
				-0.062215957790613174
			]
		},
		{
			"mesh":11,
			"name":"Cube.004",
			"scale":[
				0.21276360750198364,
				0.21276360750198364,
				0.21276360750198364
			],
			"translation":[
				0.0008037089719437063,
				3.5903432369232178,
				-0.007425182498991489
			]
		}
	],
	"materials":[
		{
			"doubleSided":true,
			"name":"Material",
			"pbrMetallicRoughness":{
				"baseColorFactor":[
					0.800000011920929,
					0.800000011920929,
					0.800000011920929,
					1
				],
				"metallicFactor":0,
				"roughnessFactor":0.5
			}
		}
	],
	"meshes":[
		{
			"name":"Cube",
			"primitives":[
				{
					"attributes":{
						"POSITION":0,
						"NORMAL":1,
						"TEXCOORD_0":2
					},
					"indices":3,
					"material":0
				}
			]
		},
		{
			"name":"Cube.001",
			"primitives":[
				{
					"attributes":{
						"POSITION":4,
						"NORMAL":5,
						"TEXCOORD_0":6
					},
					"indices":7,
					"material":0
				}
			]
		},
		{
			"name":"Cube.003",
			"primitives":[
				{
					"attributes":{
						"POSITION":8,
						"NORMAL":9,
						"TEXCOORD_0":10
					},
					"indices":11
				}
			]
		},
		{
			"name":"Icosphere",
			"primitives":[
				{
					"attributes":{
						"POSITION":12,
						"NORMAL":13,
						"TEXCOORD_0":14
					},
					"indices":15
				}
			]
		},
		{
			"name":"Cube.004",
			"primitives":[
				{
					"attributes":{
						"POSITION":16,
						"NORMAL":17,
						"TEXCOORD_0":18
					},
					"indices":19
				}
			]
		},
		{
			"name":"Cube.005",
			"primitives":[
				{
					"attributes":{
						"POSITION":20,
						"NORMAL":21,
						"TEXCOORD_0":22
					},
					"indices":23
				}
			]
		},
		{
			"name":"Icosphere.001",
			"primitives":[
				{
					"attributes":{
						"POSITION":24,
						"NORMAL":25,
						"TEXCOORD_0":26
					},
					"indices":15
				}
			]
		},
		{
			"name":"Cube.006",
			"primitives":[
				{
					"attributes":{
						"POSITION":27,
						"NORMAL":28,
						"TEXCOORD_0":29
					},
					"indices":30
				}
			]
		},
		{
			"name":"Cube.007",
			"primitives":[
				{
					"attributes":{
						"POSITION":31,
						"NORMAL":32,
						"TEXCOORD_0":33
					},
					"indices":34
				}
			]
		},
		{
			"name":"Cube.009",
			"primitives":[
				{
					"attributes":{
						"POSITION":35,
						"NORMAL":36,
						"TEXCOORD_0":37
					},
					"indices":38
				}
			]
		},
		{
			"name":"Cylinder",
			"primitives":[
				{
					"attributes":{
						"POSITION":39,
						"NORMAL":40,
						"TEXCOORD_0":41
					},
					"indices":42
				}
			]
		},
		{
			"name":"Cube.010",
			"primitives":[
				{
					"attributes":{
						"POSITION":43,
						"NORMAL":44,
						"TEXCOORD_0":45
					},
					"indices":46
				}
			]
		}
	],
	"accessors":[
		{
			"bufferView":0,
			"componentType":5126,
			"count":80,
			"max":[
				0.9969091415405273,
				1.7655744552612305,
				0.48928356170654297
			],
			"min":[
				-3.619506359100342,
				-1.2592707872390747,
				-0.5914268493652344
			],
			"type":"VEC3"
		},
		{
			"bufferView":1,
			"componentType":5126,
			"count":80,
			"type":"VEC3"
		},
		{
			"bufferView":2,
			"componentType":5126,
			"count":80,
			"type":"VEC2"
		},
		{
			"bufferView":3,
			"componentType":5123,
			"count":120,
			"type":"SCALAR"
		},
		{
			"bufferView":4,
			"componentType":5126,
			"count":112,
			"max":[
				0.24274227023124695,
				1.414529800415039,
				0.30100733041763306
			],
			"min":[
				-3.160392999649048,
				-1.1771049499511719,
				-0.6578867435455322
			],
			"type":"VEC3"
		},
		{
			"bufferView":5,
			"componentType":5126,
			"count":112,
			"type":"VEC3"
		},
		{
			"bufferView":6,
			"componentType":5126,
			"count":112,
			"type":"VEC2"
		},
		{
			"bufferView":7,
			"componentType":5123,
			"count":168,
			"type":"SCALAR"
		},
		{
			"bufferView":8,
			"componentType":5126,
			"count":112,
			"max":[
				2.5786335468292236,
				0.9539358019828796,
				3.22005558013916
			],
			"min":[
				-2.6306281089782715,
				-0.8936142921447754,
				-1.1147502660751343
			],
			"type":"VEC3"
		},
		{
			"bufferView":9,
			"componentType":5126,
			"count":112,
			"type":"VEC3"
		},
		{
			"bufferView":10,
			"componentType":5126,
			"count":112,
			"type":"VEC2"
		},
		{
			"bufferView":11,
			"componentType":5123,
			"count":168,
			"type":"SCALAR"
		},
		{
			"bufferView":12,
			"componentType":5126,
			"count":480,
			"max":[
				0.9510578513145447,
				1,
				0.9999999403953552
			],
			"min":[
				-7.0948166847229,
				-1,
				-0.9999999403953552
			],
			"type":"VEC3"
		},
		{
			"bufferView":13,
			"componentType":5126,
			"count":480,
			"type":"VEC3"
		},
		{
			"bufferView":14,
			"componentType":5126,
			"count":480,
			"type":"VEC2"
		},
		{
			"bufferView":15,
			"componentType":5123,
			"count":480,
			"type":"SCALAR"
		},
		{
			"bufferView":16,
			"componentType":5126,
			"count":64,
			"max":[
				1.1726469993591309,
				0.8054580688476562,
				0.771413266658783
			],
			"min":[
				-1.1726469993591309,
				-0.9621720314025879,
				-1.0778199434280396
			],
			"type":"VEC3"
		},
		{
			"bufferView":17,
			"componentType":5126,
			"count":64,
			"type":"VEC3"
		},
		{
			"bufferView":18,
			"componentType":5126,
			"count":64,
			"type":"VEC2"
		},
		{
			"bufferView":19,
			"componentType":5123,
			"count":108,
			"type":"SCALAR"
		},
		{
			"bufferView":20,
			"componentType":5126,
			"count":108,
			"max":[
				0.996240496635437,
				0.5690180659294128,
				0.7716132998466492
			],
			"min":[
				-0.996240496635437,
				-0.9348834753036499,
				-0.8042399883270264
			],
			"type":"VEC3"
		},
		{
			"bufferView":21,
			"componentType":5126,
			"count":108,
			"type":"VEC3"
		},
		{
			"bufferView":22,
			"componentType":5126,
			"count":108,
			"type":"VEC2"
		},
		{
			"bufferView":23,
			"componentType":5123,
			"count":168,
			"type":"SCALAR"
		},
		{
			"bufferView":24,
			"componentType":5126,
			"count":480,
			"max":[
				10.645974159240723,
				1,
				0.9999999403953552
			],
			"min":[
				-0.9510578513145447,
				-1,
				-0.9999999403953552
			],
			"type":"VEC3"
		},
		{
			"bufferView":25,
			"componentType":5126,
			"count":480,
			"type":"VEC3"
		},
		{
			"bufferView":26,
			"componentType":5126,
			"count":480,
			"type":"VEC2"
		},
		{
			"bufferView":27,
			"componentType":5126,
			"count":48,
			"max":[
				0.9773587584495544,
				1.524057388305664,
				0.2982354462146759
			],
			"min":[
				-8.448959350585938,
				-1.7548701763153076,
				-0.7461702823638916
			],
			"type":"VEC3"
		},
		{
			"bufferView":28,
			"componentType":5126,
			"count":48,
			"type":"VEC3"
		},
		{
			"bufferView":29,
			"componentType":5126,
			"count":48,
			"type":"VEC2"
		},
		{
			"bufferView":30,
			"componentType":5123,
			"count":72,
			"type":"SCALAR"
		},
		{
			"bufferView":31,
			"componentType":5126,
			"count":48,
			"max":[
				0.5698168873786926,
				0.9773588180541992,
				-0.17806842923164368
			],
			"min":[
				-10.396102905273438,
				-2.020348072052002,
				-1
			],
			"type":"VEC3"
		},
		{
			"bufferView":32,
			"componentType":5126,
			"count":48,
			"type":"VEC3"
		},
		{
			"bufferView":33,
			"componentType":5126,
			"count":48,
			"type":"VEC2"
		},
		{
			"bufferView":34,
			"componentType":5123,
			"count":72,
			"type":"SCALAR"
		},
		{
			"bufferView":35,
			"componentType":5126,
			"count":136,
			"max":[
				1.684135913848877,
				1.6657688617706299,
				1.3150815963745117
			],
			"min":[
				-9.165555953979492,
				-3.964392900466919,
				-4.784040451049805
			],
			"type":"VEC3"
		},
		{
			"bufferView":36,
			"componentType":5126,
			"count":136,
			"type":"VEC3"
		},
		{
			"bufferView":37,
			"componentType":5126,
			"count":136,
			"type":"VEC2"
		},
		{
			"bufferView":38,
			"componentType":5123,
			"count":204,
			"type":"SCALAR"
		},
		{
			"bufferView":39,
			"componentType":5126,
			"count":192,
			"max":[
				1.3935832977294922,
				1.259145736694336,
				1.1064109802246094
			],
			"min":[
				-1.3935832977294922,
				-0.8149057030677795,
				-1.2826884984970093
			],
			"type":"VEC3"
		},
		{
			"bufferView":40,
			"componentType":5126,
			"count":192,
			"type":"VEC3"
		},
		{
			"bufferView":41,
			"componentType":5126,
			"count":192,
			"type":"VEC2"
		},
		{
			"bufferView":42,
			"componentType":5123,
			"count":372,
			"type":"SCALAR"
		},
		{
			"bufferView":43,
			"componentType":5126,
			"count":88,
			"max":[
				0.7363157272338867,
				0.8940631151199341,
				1.1144531965255737
			],
			"min":[
				-0.7363157272338867,
				-1.5162911415100098,
				-0.8783934116363525
			],
			"type":"VEC3"
		},
		{
			"bufferView":44,
			"componentType":5126,
			"count":88,
			"type":"VEC3"
		},
		{
			"bufferView":45,
			"componentType":5126,
			"count":88,
			"type":"VEC2"
		},
		{
			"bufferView":46,
			"componentType":5123,
			"count":132,
			"type":"SCALAR"
		}
	],
	"bufferViews":[
		{
			"buffer":0,
			"byteLength":960,
			"byteOffset":0,
			"target":34962
		},
		{
			"buffer":0,
			"byteLength":960,
			"byteOffset":960,
			"target":34962
		},
		{
			"buffer":0,
			"byteLength":640,
			"byteOffset":1920,
			"target":34962
		},
		{
			"buffer":0,
			"byteLength":240,
			"byteOffset":2560,
			"target":34963
		},
		{
			"buffer":0,
			"byteLength":1344,
			"byteOffset":2800,
			"target":34962
		},
		{
			"buffer":0,
			"byteLength":1344,
			"byteOffset":4144,
			"target":34962
		},
		{
			"buffer":0,
			"byteLength":896,
			"byteOffset":5488,
			"target":34962
		},
		{
			"buffer":0,
			"byteLength":336,
			"byteOffset":6384,
			"target":34963
		},
		{
			"buffer":0,
			"byteLength":1344,
			"byteOffset":6720,
			"target":34962
		},
		{
			"buffer":0,
			"byteLength":1344,
			"byteOffset":8064,
			"target":34962
		},
		{
			"buffer":0,
			"byteLength":896,
			"byteOffset":9408,
			"target":34962
		},
		{
			"buffer":0,
			"byteLength":336,
			"byteOffset":10304,
			"target":34963
		},
		{
			"buffer":0,
			"byteLength":5760,
			"byteOffset":10640,
			"target":34962
		},
		{
			"buffer":0,
			"byteLength":5760,
			"byteOffset":16400,
			"target":34962
		},
		{
			"buffer":0,
			"byteLength":3840,
			"byteOffset":22160,
			"target":34962
		},
		{
			"buffer":0,
			"byteLength":960,
			"byteOffset":26000,
			"target":34963
		},
		{
			"buffer":0,
			"byteLength":768,
			"byteOffset":26960,
			"target":34962
		},
		{
			"buffer":0,
			"byteLength":768,
			"byteOffset":27728,
			"target":34962
		},
		{
			"buffer":0,
			"byteLength":512,
			"byteOffset":28496,
			"target":34962
		},
		{
			"buffer":0,
			"byteLength":216,
			"byteOffset":29008,
			"target":34963
		},
		{
			"buffer":0,
			"byteLength":1296,
			"byteOffset":29224,
			"target":34962
		},
		{
			"buffer":0,
			"byteLength":1296,
			"byteOffset":30520,
			"target":34962
		},
		{
			"buffer":0,
			"byteLength":864,
			"byteOffset":31816,
			"target":34962
		},
		{
			"buffer":0,
			"byteLength":336,
			"byteOffset":32680,
			"target":34963
		},
		{
			"buffer":0,
			"byteLength":5760,
			"byteOffset":33016,
			"target":34962
		},
		{
			"buffer":0,
			"byteLength":5760,
			"byteOffset":38776,
			"target":34962
		},
		{
			"buffer":0,
			"byteLength":3840,
			"byteOffset":44536,
			"target":34962
		},
		{
			"buffer":0,
			"byteLength":576,
			"byteOffset":48376,
			"target":34962
		},
		{
			"buffer":0,
			"byteLength":576,
			"byteOffset":48952,
			"target":34962
		},
		{
			"buffer":0,
			"byteLength":384,
			"byteOffset":49528,
			"target":34962
		},
		{
			"buffer":0,
			"byteLength":144,
			"byteOffset":49912,
			"target":34963
		},
		{
			"buffer":0,
			"byteLength":576,
			"byteOffset":50056,
			"target":34962
		},
		{
			"buffer":0,
			"byteLength":576,
			"byteOffset":50632,
			"target":34962
		},
		{
			"buffer":0,
			"byteLength":384,
			"byteOffset":51208,
			"target":34962
		},
		{
			"buffer":0,
			"byteLength":144,
			"byteOffset":51592,
			"target":34963
		},
		{
			"buffer":0,
			"byteLength":1632,
			"byteOffset":51736,
			"target":34962
		},
		{
			"buffer":0,
			"byteLength":1632,
			"byteOffset":53368,
			"target":34962
		},
		{
			"buffer":0,
			"byteLength":1088,
			"byteOffset":55000,
			"target":34962
		},
		{
			"buffer":0,
			"byteLength":408,
			"byteOffset":56088,
			"target":34963
		},
		{
			"buffer":0,
			"byteLength":2304,
			"byteOffset":56496,
			"target":34962
		},
		{
			"buffer":0,
			"byteLength":2304,
			"byteOffset":58800,
			"target":34962
		},
		{
			"buffer":0,
			"byteLength":1536,
			"byteOffset":61104,
			"target":34962
		},
		{
			"buffer":0,
			"byteLength":744,
			"byteOffset":62640,
			"target":34963
		},
		{
			"buffer":0,
			"byteLength":1056,
			"byteOffset":63384,
			"target":34962
		},
		{
			"buffer":0,
			"byteLength":1056,
			"byteOffset":64440,
			"target":34962
		},
		{
			"buffer":0,
			"byteLength":704,
			"byteOffset":65496,
			"target":34962
		},
		{
			"buffer":0,
			"byteLength":264,
			"byteOffset":66200,
			"target":34963
		}
	],
	"buffers":[
		{
			"byteLength":66464,
			"uri":"Initial.bin"
		}
	]
}
